<?xml version="1.0" encoding="UTF-8" standalone="no"?>
<!-- Created with Inkscape (http://www.inkscape.org/) -->

<svg
   width="2400"
   height="1000"
   viewBox="0 0 634.99999 264.58334"
   version="1.1"
   id="svg5"
   inkscape:version="1.1.1 (eb90963e84, 2021-10-02)"
   sodipodi:docname="banner.svg"
   xmlns:inkscape="http://www.inkscape.org/namespaces/inkscape"
   xmlns:sodipodi="http://sodipodi.sourceforge.net/DTD/sodipodi-0.dtd"
   xmlns="http://www.w3.org/2000/svg"
   xmlns:svg="http://www.w3.org/2000/svg">
  <sodipodi:namedview
     id="namedview7"
     pagecolor="#ffffff"
     bordercolor="#666666"
     borderopacity="1.0"
     inkscape:pageshadow="2"
     inkscape:pageopacity="0.0"
     inkscape:pagecheckerboard="0"
     inkscape:document-units="mm"
     showgrid="false"
     units="px"
     width="2400px"
     inkscape:snap-page="false"
     inkscape:zoom="0.15464737"
     inkscape:cx="1141.3062"
     inkscape:cy="882.65323"
     inkscape:window-width="1280"
     inkscape:window-height="662"
     inkscape:window-x="0"
     inkscape:window-y="720"
     inkscape:window-maximized="1"
     inkscape:current-layer="layer1" />
  <defs
     id="defs2" />
  <g
     inkscape:label="Layer 1"
     inkscape:groupmode="layer"
     id="layer1">
    <g
       fill="none"
       fill-rule="evenodd"
       id="g1061"
       transform="matrix(2.1245116,0,0,2.1245116,162.84803,55.808186)">
      <g
         fill="#221f1f"
         id="g1057">
        <path
           d="m 69.494,6.27 -3.057,3.232 -2.222,2.346 h 1.961 v 5.815 c 0,2.452 1.209,3.443 4.265,3.443 a 9.22,9.22 0 0 0 1.664,-0.148 v -2.39 a 7.888,7.888 0 0 1 -0.98,0.047 c -1.129,0 -1.63,-0.502 -1.63,-1.597 v -5.17 h 2.61 v -2.61 h -2.61 z"
           id="path1049" />
        <path
           d="m 8.913,15.661 c 0,0.218 0.03,0.436 0.093,0.645 0.792,2.695 2.623,3.856 4.89,3.856 3.042,0 5.193,-1.94 5.193,-6.714 0,-4.72 -2.15,-6.714 -5.193,-6.714 -2.427,0 -4.221,1.17 -4.91,3.887 A 2.34,2.34 0 0 0 8.913,11.193 Z M 0.206,35.665 V 1.197 a 0.6,0.6 0 0 1 0.6,-0.6 H 7.853 A 0.6,0.6 0 0 1 8.44,1.068 l 0.473,2.151 c 1.837,-2.097 4.46,-3.147 7.763,-3.147 6.505,0 11.383,4.144 11.383,13.376 0,9.232 -4.826,13.482 -11.383,13.482 -3.251,0 -5.927,-1.05 -7.763,-3.2 v 11.936 a 0.6,0.6 0 0 1 -0.601,0.6 H 0.807 a 0.6,0.6 0 0 1 -0.601,-0.6 z"
           mask="url(#a)"
           transform="translate(117.53,35.735)"
           id="path1051" />
        <path
           d="m 74.884,51.543 c 0,0.193 0.025,0.385 0.072,0.572 0.69,2.717 2.483,3.887 4.91,3.887 3.043,0 5.193,-1.993 5.193,-6.714 0,-4.773 -2.15,-6.714 -5.192,-6.714 -2.268,0 -4.1,1.161 -4.89,3.856 -0.062,0.21 -0.093,0.427 -0.093,0.645 z M 66.777,26.47 h 7.506 c 0.331,0 0.6,0.27 0.6,0.601 v 11.936 c 1.837,-2.15 4.512,-3.2 7.764,-3.2 6.557,0 11.383,4.249 11.383,13.481 0,9.232 -4.88,13.377 -11.383,13.377 -3.305,0 -5.927,-1.05 -7.763,-3.148 l -0.473,2.15 a 0.601,0.601 0 0 1 -0.587,0.472 h -7.047 a 0.6,0.6 0 0 1 -0.6,-0.6 V 27.071 a 0.6,0.6 0 0 1 0.6,-0.6 z m 29.321,0 h 7.506 a 0.6,0.6 0 0 1 0.6,0.601 V 61.54 a 0.6,0.6 0 0 1 -0.6,0.6 h -7.506 a 0.6,0.6 0 0 1 -0.601,-0.6 V 27.07 a 0.6,0.6 0 0 1 0.601,-0.6 m 11.119,9.862 h 7.506 a 0.6,0.6 0 0 1 0.6,0.6 V 61.54 a 0.6,0.6 0 0 1 -0.6,0.6 h -7.506 a 0.6,0.6 0 0 1 -0.6,-0.6 V 36.933 a 0.6,0.6 0 0 1 0.6,-0.601 m -0.6,-3.853 v -5.408 a 0.6,0.6 0 0 1 0.6,-0.6 h 7.506 a 0.6,0.6 0 0 1 0.6,0.6 v 5.408 a 0.6,0.6 0 0 1 -0.6,0.6 h -7.506 a 0.6,0.6 0 0 1 -0.6,-0.6 M 98.567,7.237 c 1.486,0 2.447,0.995 2.512,2.59 h -5.135 c 0.11,-1.562 1.148,-2.59 2.623,-2.59 z m 5.637,4.622 v -0.972 c 0,-3.824 -2.097,-6.086 -5.648,-6.086 -3.584,0 -5.79,2.425 -5.79,6.348 0,3.91 2.366,6.228 6.038,6.228 2.95,0 4.821,-1.42 5.302,-3.693 h -2.961 c -0.339,0.797 -1.202,1.246 -2.458,1.246 -1.66,0 -2.71,-1.115 -2.754,-2.907 v -0.164 z"
           id="path1053" />
        <path
           d="m 80.354,16.352 c 0,1.277 -1.163,2.257 -2.703,2.257 -1.15,0 -1.96,-0.57 -1.96,-1.504 0,-0.902 0.695,-1.414 2.12,-1.517 l 2.543,-0.16 z M 94.926,4.8 h -3.553 l -4.43,4.878 V 0 h -3.317 l -0.002,11.901 a 5.301,5.301 0 0 0 -0.23,-1.074 C 82.799,9.061 81.066,8.063 78.415,8.063 c -3.158,0 -5.29,1.459 -5.506,3.785 h 3.055 c 0.274,-0.752 1.072,-1.163 2.269,-1.163 1.368,0 2.12,0.593 2.12,1.642 v 1.026 l -3.044,0.183 c -3.123,0.182 -4.868,1.505 -4.868,3.785 0,2.303 1.699,3.785 4.116,3.785 0.455,0 0.958,-0.015 1.445,-0.036 1.972,-0.197 3.428,-1.316 4.127,-1.974 l 1.497,-1.582 3.302,-3.685 0.4,-0.446 3.804,3.991 h 4.086 l -5.92,-6.22 z"
           id="path1055" />
      </g>
      <path
         d="M 29.39,0 C 22.371,0 15.096,1.128 10.14,4.19 2.099,9.157 -0.252,18.855 0.02,27.784 0.26,35.506 2.325,43.8 7.81,49.503 c 5.233,5.441 15.999,7.888 23.337,7.888 0.331,0 0.681,0.238 0.681,0.682 v 7.794 a 1.35,1.35 0 0 0 1.364,1.368 c 0.045,0 0.086,-0.008 0.129,-0.012 0.29,-0.026 0.545,-0.133 0.748,-0.304 3.699,-3.171 7.398,-6.395 10.966,-9.715 3.42,-3.183 7.294,-6.452 9.97,-10.262 5.645,-8.037 6.48,-19.398 4.61,-28.818 C 57.815,9.061 51.397,3.16 42.399,1.282 38.696,0.508 34.1,0 29.39,0"
         fill="#00c6d7"
         mask="url(#b)"
         transform="translate(0,4.765)"
         id="path1059" />
    </g>
  </g>
</svg>
